# xmcd
#
# Track frame offsets: 
#        150
#        30645
#        54525
#        90400
#        118545
#        152312
#        173417
#        202777
#        217527
#        240832
#        263592
#        282415
#        292277
#
# Disc length: 4361 seconds
#
# Revision: 0
# Processed by: cddbd v1.5.2PL0 Copyright (c) Steve Scherf et al.
# Submitted via: ExactAudioCopy v0.99pb5
#
DISCID=9c11070d
DTITLE=Marianne Faithfull - Blazing Away
DYEAR=1990
DGENRE=
TTITLE0=Les Prisons Du Roy
TTITLE1=Strange Weather
TTITLE2=Guilt
TTITLE3=Working Class Hero
TTITLE4=Sister Morphine
TTITLE5=As Tears Go By
TTITLE6=Why'd Ya Do It
TTITLE7=When I Find My Life
TTITLE8=Ballad Of Lucy Jordan
TTITLE9=Times Square
TTITLE10=Blazing Away
TTITLE11=She Moved Through The Fair
TTITLE12=Broken English
EXTD=
EXTT0=
EXTT1=
EXTT2=
EXTT3=
EXTT4=
EXTT5=
EXTT6=
EXTT7=
EXTT8=
EXTT9=
EXTT10=
EXTT11=
EXTT12=
PLAYORDER=
